<svg xmlns="http://www.w3.org/2000/svg" viewBox="0 0 620 230" font-family="Georgia, 'Times New Roman', serif">
  <g>
    <g fill="#0f7a3d">
      <ellipse cx="80" cy="50" rx="9" ry="30" transform="rotate(-48 80 50)"/>
      <ellipse cx="80" cy="48" rx="9" ry="32" transform="rotate(-24 80 48)"/>
      <ellipse cx="80" cy="46" rx="9" ry="34"/>
      <ellipse cx="80" cy="48" rx="9" ry="32" transform="rotate(24 80 48)"/>
      <ellipse cx="80" cy="50" rx="9" ry="30" transform="rotate(48 80 50)"/>
    </g>
    <g fill="#e6d6a0">
      <ellipse cx="80" cy="40" rx="7" ry="24" transform="rotate(-16 80 40)"/>
      <ellipse cx="80" cy="38" rx="7" ry="26"/>
      <ellipse cx="80" cy="40" rx="7" ry="24" transform="rotate(16 80 40)"/>
    </g>
  </g>

  <path d="M34 64 Q34 56 42 56 L118 56 Q126 56 126 64 L126 150 Q126 172 80 196 Q34 172 34 150 Z" fill="#0f7a3d"/>
  <path d="M41 67 Q41 62 46 62 L114 62 Q119 62 119 67 L119 148 Q119 166 80 187 Q41 166 41 148 Z" fill="#8e1c40"/>

  <rect x="49" y="70" width="62" height="17" rx="2" fill="#0f7a3d"/>
  <text x="80" y="83" font-size="11" font-weight="bold" fill="#ffffff" text-anchor="middle" letter-spacing="1">EST 1985</text>

  <rect x="45" y="96" width="6" height="40" fill="#0f7a3d"/>
  <rect x="109" y="96" width="6" height="40" fill="#0f7a3d"/>
  <text x="80" y="120" font-size="13.5" font-weight="bold" fill="#ffffff" text-anchor="middle" letter-spacing="0.5">GREENSPRINGS</text>

  <path d="M44 150 L116 150 L110 168 L50 168 Z" fill="#0f7a3d"/>
  <text x="80" y="162" font-size="8" font-weight="bold" fill="#ffffff" text-anchor="middle" letter-spacing="0.5">IN LOVE SERVE ONE ANOTHER</text>

  <text x="165" y="98" font-size="56" font-weight="bold" fill="#0e7a3e" letter-spacing="0.5">GREENSPRINGS</text>
  <text x="165" y="156" font-size="56" font-weight="bold" fill="#0e7a3e" letter-spacing="0.5">SCHOOL</text>
  <text x="320" y="194" font-size="22" font-style="italic" fill="#0e7a3e" text-anchor="middle">&#8220;In love serve one another&#8221;</text>
</svg>
